<svg width="18" height="16" viewBox="0 0 18 16" fill="none" xmlns="http://www.w3.org/2000/svg">
<path fill-rule="evenodd" clip-rule="evenodd" d="M18.0007 7.84262C18.0007 4.83178 16.8617 2.08439 14.987 0L14.1828 0.525963C15.9623 2.45547 17.0478 5.02352 17.0478 7.84262C17.0478 10.7578 15.8871 13.4046 13.9984 15.3544L14.8057 15.8824C16.788 13.7756 18.0007 10.9494 18.0007 7.84262ZM0 5.41548V10.4398H3.20761L7.41176 13.9569V1.89844L3.20761 5.41548H0ZM12.286 2.11248C13.7867 3.56844 14.7178 5.59791 14.7178 7.84275C14.7178 10.1849 13.7042 12.2926 12.0877 13.7591L11.2645 13.2207C12.795 11.9226 13.7649 9.99483 13.7649 7.84275C13.7649 5.7887 12.8813 3.939 11.4701 2.64608L12.286 2.11248ZM11.255 7.81094C11.255 6.24213 10.6644 4.82233 9.71038 3.79688L8.93323 4.30512C9.83511 5.12727 10.4101 6.37277 10.4101 7.76692C10.4101 9.31761 9.69872 10.6844 8.61742 11.4893L9.48301 12.0553C10.5697 11.0179 11.255 9.50086 11.255 7.81094Z" fill="white" fill-opacity="0.6"/>
</svg>
