<svg width="50" height="50" viewBox="0 0 50 50" fill="none" xmlns="http://www.w3.org/2000/svg">
<g filter="url(#filter0_b_11_494)">
<path fill-rule="evenodd" clip-rule="evenodd" d="M25 50C38.8071 50 50 38.8071 50 25C50 11.1929 38.8071 0 25 0C11.1929 0 0 11.1929 0 25C0 38.8071 11.1929 50 25 50Z" fill="url(#paint0_linear_11_494)"/>
</g>
<path fill-rule="evenodd" clip-rule="evenodd" d="M33.7051 24.1467C34.3429 24.5367 34.3429 25.463 33.7051 25.853L21.4185 33.3661C20.7522 33.7736 19.8968 33.294 19.8968 32.513V17.4868C19.8968 16.7058 20.7522 16.2262 21.4185 16.6337L33.7051 24.1467Z" fill="white"/>
<defs>
<filter id="filter0_b_11_494" x="-5.43656" y="-5.43656" width="60.8731" height="60.8731" filterUnits="userSpaceOnUse" color-interpolation-filters="sRGB">
<feFlood flood-opacity="0" result="BackgroundImageFix"/>
<feGaussianBlur in="BackgroundImage" stdDeviation="2.71828"/>
<feComposite in2="SourceAlpha" operator="in" result="effect1_backgroundBlur_11_494"/>
<feBlend mode="normal" in="SourceGraphic" in2="effect1_backgroundBlur_11_494" result="shape"/>
</filter>
<linearGradient id="paint0_linear_11_494" x1="0" y1="0" x2="0" y2="50" gradientUnits="userSpaceOnUse">
<stop stop-color="#EE4289"/>
<stop offset="1" stop-color="#630BF5"/>
</linearGradient>
</defs>
</svg>
